<svg width="30" height="18" viewBox="0 0 30 18" fill="none" xmlns="http://www.w3.org/2000/svg">
<path d="M17.6551 8.20729H9.06756L9.07942 10.5322H14.8696C14.1821 13.3614 12.0723 15.0981 9.23351 15.0981C5.51166 15.0981 2.49506 12.2465 2.49506 8.7283C2.49506 5.21009 5.51166 2.35855 9.23351 2.35855C11.0055 2.35855 12.6116 3.0028 13.8147 4.05603L15.7171 2.50981C14.0458 0.957984 11.7582 0 9.23351 0C4.1367 0 0 3.91037 0 8.7283C0 13.5518 4.1367 17.4566 9.23351 17.4566C14.1288 17.4566 17.6669 13.9272 17.6669 9.10365L17.6551 8.20729Z" fill="white"/>
<path d="M30 8.30255H26.456V4.9524H24.192V8.30255H20.648V10.437H24.192V13.7928H26.456V10.437H30V8.30255Z" fill="white"/>
</svg>
